<svg width="12" height="12" viewBox="0 0 12 12" fill="none" xmlns="http://www.w3.org/2000/svg">
<path d="M8.62009 11.375H3.38009C1.98009 11.375 1.09009 10.54 1.01009 9.145L0.750087 5.02C0.710087 4.395 0.925087 3.795 1.35509 3.34C1.78009 2.885 2.38009 2.625 3.00009 2.625C3.16009 2.625 3.31509 2.53 3.39009 2.38L3.75009 1.665C4.04509 1.08 4.78509 0.625 5.43009 0.625H6.57509C7.22009 0.625 7.95509 1.08 8.25009 1.66L8.61009 2.39C8.68509 2.53 8.83509 2.625 9.00009 2.625C9.62009 2.625 10.2201 2.885 10.6451 3.34C11.0751 3.8 11.2901 4.395 11.2501 5.02L10.9901 9.15C10.9001 10.565 10.0351 11.375 8.62009 11.375ZM5.43009 1.375C5.06009 1.375 4.59009 1.665 4.42009 2L4.06009 2.72C3.85009 3.125 3.44509 3.375 3.00009 3.375C2.58009 3.375 2.19009 3.545 1.90009 3.85C1.61509 4.155 1.47009 4.555 1.50009 4.97L1.76009 9.1C1.82009 10.11 2.36509 10.625 3.38009 10.625H8.62009C9.63009 10.625 10.1751 10.11 10.2401 9.1L10.5001 4.97C10.5251 4.555 10.3851 4.155 10.1001 3.85C9.81009 3.545 9.42009 3.375 9.00009 3.375C8.55509 3.375 8.15009 3.125 7.94009 2.73L7.57509 2C7.41009 1.67 6.94009 1.38 6.57009 1.38H5.43009V1.375Z" fill="white"/>
<path d="M6.75 4.375H5.25C5.045 4.375 4.875 4.205 4.875 4C4.875 3.795 5.045 3.625 5.25 3.625H6.75C6.955 3.625 7.125 3.795 7.125 4C7.125 4.205 6.955 4.375 6.75 4.375Z" fill="white"/>
<path d="M6 9.375C4.895 9.375 4 8.48 4 7.375C4 6.27 4.895 5.375 6 5.375C7.105 5.375 8 6.27 8 7.375C8 8.48 7.105 9.375 6 9.375ZM6 6.125C5.31 6.125 4.75 6.685 4.75 7.375C4.75 8.065 5.31 8.625 6 8.625C6.69 8.625 7.25 8.065 7.25 7.375C7.25 6.685 6.69 6.125 6 6.125Z" fill="white"/>
</svg>
