<svg width="20" height="16" viewBox="0 0 20 16" fill="none" xmlns="http://www.w3.org/2000/svg">
<path d="M20 1.89203C19.2504 2.2194 18.4565 2.43406 17.644 2.52903C18.4968 2.02826 19.138 1.23413 19.448 0.295027C18.64 0.765355 17.7587 1.09663 16.841 1.27503C16.4545 0.870233 15.9897 0.548415 15.4748 0.329206C14.9598 0.109996 14.4056 -0.00200735 13.846 2.72293e-05C11.58 2.72293e-05 9.743 1.81003 9.743 4.04003C9.743 4.35603 9.779 4.66503 9.849 4.96003C8.22358 4.88272 6.63212 4.46743 5.17617 3.74067C3.72022 3.0139 2.43176 1.99161 1.393 0.739027C1.02883 1.35343 0.837415 2.05481 0.839 2.76903C0.839697 3.43699 1.00683 4.09426 1.32529 4.68142C1.64375 5.26858 2.1035 5.76714 2.663 6.13203C2.01248 6.11103 1.37602 5.93735 0.805 5.62503V5.67503C0.805 7.63303 2.22 9.26603 4.095 9.63803C3.74261 9.73153 3.37958 9.77892 3.015 9.77903C2.75 9.77903 2.493 9.75403 2.242 9.70403C2.51008 10.512 3.02311 11.2163 3.70982 11.7194C4.39653 12.2224 5.22284 12.4991 6.074 12.511C4.61407 13.6356 2.82182 14.2431 0.979 14.238C0.647 14.238 0.321 14.218 0 14.182C1.88125 15.3727 4.06259 16.0033 6.289 16C13.836 16 17.962 9.84303 17.962 4.50403L17.948 3.98103C18.7529 3.4147 19.4481 2.70687 20 1.89203Z" fill="#858282"/>
</svg>
