<svg width="20" height="20" viewBox="0 0 20 20" fill="none" xmlns="http://www.w3.org/2000/svg">
<path d="M9.99993 13.6073C8.00827 13.6073 6.3916 11.9906 6.3916 9.99896C6.3916 8.00729 8.00827 6.39062 9.99993 6.39062C11.9916 6.39062 13.6083 8.00729 13.6083 9.99896C13.6083 11.9906 11.9916 13.6073 9.99993 13.6073ZM9.99993 7.64062C8.69993 7.64062 7.6416 8.69896 7.6416 9.99896C7.6416 11.299 8.69993 12.3573 9.99993 12.3573C11.2999 12.3573 12.3583 11.299 12.3583 9.99896C12.3583 8.69896 11.2999 7.64062 9.99993 7.64062Z" fill="#292D32"/>
<path d="M9.9999 17.5177C6.86657 17.5177 3.90824 15.6844 1.8749 12.501C0.991569 11.126 0.991569 8.88437 1.8749 7.50104C3.91657 4.31771 6.8749 2.48438 9.9999 2.48438C13.1249 2.48438 16.0832 4.31771 18.1166 7.50104C18.9999 8.87604 18.9999 11.1177 18.1166 12.501C16.0832 15.6844 13.1249 17.5177 9.9999 17.5177ZM9.9999 3.73438C7.30824 3.73438 4.73324 5.35104 2.93324 8.17604C2.30824 9.15104 2.30824 10.851 2.93324 11.826C4.73324 14.651 7.30824 16.2677 9.9999 16.2677C12.6916 16.2677 15.2666 14.651 17.0666 11.826C17.6916 10.851 17.6916 9.15104 17.0666 8.17604C15.2666 5.35104 12.6916 3.73438 9.9999 3.73438Z" fill="#292D32"/>
</svg>
