<svg width="171" height="171" viewBox="0 0 171 171" fill="none" xmlns="http://www.w3.org/2000/svg">
<path d="M85.5 171C132.72 171 171 132.72 171 85.5C171 38.2797 132.72 0 85.5 0C38.2797 0 0 38.2797 0 85.5C0 132.72 38.2797 171 85.5 171Z" fill="#D0D5D9"/>
<path d="M148.36 72.2656L22.731 98.8271L94.4422 170.535C134.516 166.37 166.363 134.527 170.534 94.4547L148.36 72.2656Z" fill="#929DA5"/>
<path d="M134.727 104.5H36.2729C25.7798 104.5 17.2729 95.9932 17.2729 85.5C17.2729 75.0068 25.7798 66.5 36.2729 66.5H134.727C145.221 66.5 153.727 75.0068 153.727 85.5C153.727 95.9932 145.221 104.5 134.727 104.5Z" fill="#1B1F5F"/>
<path d="M134.727 66.5H84.9243V104.5H134.727C145.221 104.5 153.727 95.9932 153.727 85.5C153.727 75.0068 145.221 66.5 134.727 66.5Z" fill="#1B1F5F"/>
<path d="M38 95C43.2467 95 47.5 90.7467 47.5 85.5C47.5 80.2533 43.2467 76 38 76C32.7533 76 28.5 80.2533 28.5 85.5C28.5 90.7467 32.7533 95 38 95Z" fill="#32373B"/>
<path d="M66.5 95C71.7467 95 76 90.7467 76 85.5C76 80.2533 71.7467 76 66.5 76C61.2533 76 57 80.2533 57 85.5C57 90.7467 61.2533 95 66.5 95Z" fill="#32373B"/>
<path d="M95 95C100.247 95 104.5 90.7467 104.5 85.5C104.5 80.2533 100.247 76 95 76C89.7533 76 85.5 80.2533 85.5 85.5C85.5 90.7467 89.7533 95 95 95Z" fill="#32373B"/>
<path d="M134.44 94.1373H117.167C115.895 94.1373 114.864 93.1061 114.864 91.8343C114.864 90.5624 115.895 89.5312 117.167 89.5312H134.44C135.711 89.5312 136.743 90.5624 136.743 91.8343C136.743 93.1061 135.711 94.1373 134.44 94.1373Z" fill="#32373B"/>
</svg>
