<svg width="20" height="21" viewBox="0 0 20 21" fill="none" xmlns="http://www.w3.org/2000/svg">
<path d="M12.4998 19.4577H7.49984C2.97484 19.4577 1.0415 17.5243 1.0415 12.9993V7.99935C1.0415 3.47435 2.97484 1.54102 7.49984 1.54102H12.4998C17.0248 1.54102 18.9582 3.47435 18.9582 7.99935V12.9993C18.9582 17.5243 17.0248 19.4577 12.4998 19.4577ZM7.49984 2.79102C3.65817 2.79102 2.2915 4.15768 2.2915 7.99935V12.9993C2.2915 16.841 3.65817 18.2077 7.49984 18.2077H12.4998C16.3415 18.2077 17.7082 16.841 17.7082 12.9993V7.99935C17.7082 4.15768 16.3415 2.79102 12.4998 2.79102H7.49984Z" fill="#9C9CA4"/>
<path d="M4.99987 16.1249C4.84154 16.1249 4.6832 16.0665 4.5582 15.9415C4.31654 15.6999 4.31654 15.2999 4.5582 15.0582L14.5582 5.0582C14.7999 4.81654 15.1999 4.81654 15.4415 5.0582C15.6832 5.29987 15.6832 5.69987 15.4415 5.94154L5.44154 15.9415C5.31654 16.0665 5.1582 16.1249 4.99987 16.1249Z" fill="#9C9CA4"/>
<path d="M14.9998 9.45833C14.6582 9.45833 14.3748 9.175 14.3748 8.83333V6.125H11.6665C11.3248 6.125 11.0415 5.84167 11.0415 5.5C11.0415 5.15833 11.3248 4.875 11.6665 4.875H14.9998C15.3415 4.875 15.6248 5.15833 15.6248 5.5V8.83333C15.6248 9.175 15.3415 9.45833 14.9998 9.45833Z" fill="#9C9CA4"/>
<path d="M8.33333 16.1243H5C4.65833 16.1243 4.375 15.841 4.375 15.4993V12.166C4.375 11.8243 4.65833 11.541 5 11.541C5.34167 11.541 5.625 11.8243 5.625 12.166V14.8743H8.33333C8.675 14.8743 8.95833 15.1577 8.95833 15.4993C8.95833 15.841 8.675 16.1243 8.33333 16.1243Z" fill="#9C9CA4"/>
</svg>
