<svg width="20" height="21" viewBox="0 0 20 21" fill="none" xmlns="http://www.w3.org/2000/svg">
<path d="M12.4998 19.4577H7.49984C2.97484 19.4577 1.0415 17.5243 1.0415 12.9993V7.99935C1.0415 3.47435 2.97484 1.54102 7.49984 1.54102H12.4998C17.0248 1.54102 18.9582 3.47435 18.9582 7.99935V12.9993C18.9582 17.5243 17.0248 19.4577 12.4998 19.4577ZM7.49984 2.79102C3.65817 2.79102 2.2915 4.15768 2.2915 7.99935V12.9993C2.2915 16.841 3.65817 18.2077 7.49984 18.2077H12.4998C16.3415 18.2077 17.7082 16.841 17.7082 12.9993V7.99935C17.7082 4.15768 16.3415 2.79102 12.4998 2.79102H7.49984Z" fill="#9C9CA4"/>
<path d="M13.6667 16.541H10.5C8.9 16.541 8.125 15.766 8.125 14.166V12.666C8.125 11.066 8.9 10.291 10.5 10.291H13.6667C15.2667 10.291 16.0417 11.066 16.0417 12.666V14.166C16.0417 15.766 15.2667 16.541 13.6667 16.541ZM10.5 11.541C9.6 11.541 9.375 11.766 9.375 12.666V14.166C9.375 15.066 9.6 15.291 10.5 15.291H13.6667C14.5667 15.291 14.7917 15.066 14.7917 14.166V12.666C14.7917 11.766 14.5667 11.541 13.6667 11.541H10.5V11.541Z" fill="#9C9CA4"/>
</svg>
