<svg width="20" height="21" viewBox="0 0 20 21" fill="none" xmlns="http://www.w3.org/2000/svg">
<path d="M11.5666 17.6579C10.9082 17.6579 10.1832 17.4245 9.45824 16.9662L7.0249 15.4412C6.85824 15.3412 6.66657 15.2829 6.4749 15.2829H5.2749C3.25824 15.2829 2.1499 14.1745 2.1499 12.1579V8.82452C2.1499 6.80785 3.25824 5.69952 5.2749 5.69952H6.46657C6.65824 5.69952 6.8499 5.64119 7.01657 5.54119L9.4499 4.01618C10.6666 3.25785 11.8499 3.11618 12.7832 3.63285C13.7166 4.14952 14.2249 5.22452 14.2249 6.66618V14.3079C14.2249 15.7412 13.7082 16.8245 12.7832 17.3412C12.4166 17.5578 12.0082 17.6579 11.5666 17.6579ZM5.2749 6.95785C3.95824 6.95785 3.3999 7.51618 3.3999 8.83285V12.1662C3.3999 13.4829 3.95824 14.0412 5.2749 14.0412H6.46657C6.8999 14.0412 7.31657 14.1579 7.68324 14.3912L10.1166 15.9162C10.9249 16.4162 11.6749 16.5495 12.1832 16.2662C12.6916 15.9829 12.9832 15.2745 12.9832 14.3329V6.67452C12.9832 5.72452 12.6916 5.01619 12.1832 4.74119C11.6749 4.45785 10.9249 4.58285 10.1166 5.09119L7.68324 6.60785C7.31657 6.84118 6.8999 6.95785 6.46657 6.95785H5.2749Z" fill="#9C9CA4"/>
<path d="M16.1081 14.4579C15.9748 14.4579 15.8498 14.4162 15.7331 14.3329C15.4581 14.1246 15.3998 13.7329 15.6081 13.4579C16.9165 11.7162 16.9165 9.28291 15.6081 7.54124C15.3998 7.26624 15.4581 6.87458 15.7331 6.66624C16.0081 6.45791 16.3998 6.51624 16.6081 6.79124C18.2498 8.97458 18.2498 12.0246 16.6081 14.2079C16.4915 14.3746 16.2998 14.4579 16.1081 14.4579Z" fill="#9C9CA4"/>
</svg>
