<svg width="104" height="35" viewBox="0 0 104 35" fill="none" xmlns="http://www.w3.org/2000/svg">
<path d="M20.9456 1.11103C18.3777 1.55458 15.2961 2.95528 13.4519 4.5194C11.8644 5.89675 10.2303 8.32463 9.45988 10.4724C8.94629 11.9431 8.82956 12.7368 8.73618 15.2814C8.6428 17.8727 8.71284 18.5964 9.13305 20.1372C10.8372 26.3003 15.2027 29.9421 21.9961 30.8058C25.4045 31.2494 29.3498 30.5023 32.2679 28.8449C34.1822 27.771 36.6801 25.1564 37.5906 23.2421C38.8979 20.534 39.3648 18.2696 39.2014 15.1414C39.038 11.8731 38.4543 9.8187 37.0536 7.64762C35.0226 4.5194 32.1745 2.46504 28.4627 1.4612C26.9686 1.06434 22.5331 0.854236 20.9456 1.11103ZM26.6885 7.11069C29.1864 7.83438 30.9606 9.44519 32.0111 11.9431C32.5481 13.2271 32.6181 13.694 32.6181 16.0752C32.5947 18.5264 32.5481 18.8766 31.9411 20.2072C31.1474 21.9114 29.3031 23.779 27.669 24.5494C26.7352 24.9696 26.1048 25.063 23.9804 25.063C21.6693 25.063 21.2724 24.9929 20.0585 24.4327C18.2609 23.5922 16.5801 21.818 15.9264 20.1138C13.802 14.511 16.1599 8.62811 21.1791 7.064C22.4864 6.64379 25.1944 6.66713 26.6885 7.11069Z" fill="white"/>
<path d="M0.0517578 8.2556V11.6406L1.17232 11.5239C2.64305 11.3371 3.03991 11.2204 4.06709 10.5201C5.39776 9.6563 6.37824 7.95212 6.51831 6.27128L6.65838 4.87058H3.3434H0.0517578V8.2556Z" fill="#D92026"/>
<path d="M61.916 8.27923V11.7109L63.3167 11.5709C64.8575 11.4308 66.3049 10.6838 67.2854 9.46982C67.9624 8.6294 68.6627 6.69177 68.6861 5.6179V4.87086H65.301H61.916V8.27923Z" fill="white"/>
<path d="M93.0349 12.4571C90.1168 13.2742 87.9224 15.0018 86.7318 17.4296C86.1248 18.6436 86.0781 18.9937 86.0781 21.3282C86.0781 23.7094 86.1248 24.0129 86.8018 25.4136C88.4827 28.9387 91.7043 30.7129 96.0931 30.5028C97.7506 30.4328 98.521 30.2694 99.5248 29.8025C100.785 29.2422 102.77 27.6781 102.77 27.2812C102.77 27.1645 101.976 26.4875 100.996 25.7638L99.2213 24.4331L98.4976 25.1802C97.1436 26.5809 95.4628 26.931 93.6419 26.2073C92.6381 25.7871 91.3307 24.293 91.3307 23.4993C91.3307 23.1025 91.6576 23.0791 97.5172 23.0791H103.704V21.0948C103.704 15.8422 100.785 12.4571 96.0698 12.2004C94.9025 12.1303 93.8053 12.2237 93.0349 12.4571ZM97.1203 16.7293C97.7973 17.2195 98.7078 19.1338 98.3809 19.4373C98.3109 19.5073 96.6767 19.5774 94.7625 19.5774H91.2841L91.4008 18.877C91.891 16.4725 95.0659 15.2819 97.1203 16.7293Z" fill="white"/>
<path d="M4.79093 12.5734C2.94668 12.9937 1.17246 14.5344 0.425419 16.332C-0.0181359 17.4059 -0.181551 30.6891 0.262004 30.6425C0.402074 30.6191 1.77943 30.5958 3.32019 30.5724L6.12159 30.5491L6.0749 21.5146C6.02821 15.7484 5.91149 12.4801 5.77142 12.4334C5.65469 12.41 5.21114 12.4801 4.79093 12.5734Z" fill="white"/>
<path d="M41.2793 12.5051C41.0458 12.7619 41.1392 26.8856 41.3726 27.7727C41.9096 29.6637 43.6371 30.5508 46.8354 30.5508C49.52 30.5508 51.1308 30.224 52.2281 29.4769C52.695 29.1734 53.1152 28.9166 53.1619 28.9166C53.2319 28.9166 53.2786 29.2902 53.2786 29.7337V30.5508H56.3134H59.3483V21.4462V12.3417H56.3134H53.2786V18.6448V24.9246L52.6483 25.5316C51.2943 26.7689 49.6601 26.8389 48.2127 25.7651L47.4423 25.1581L47.3957 18.8083L47.3256 12.4584L44.3608 12.4117C42.75 12.3884 41.3493 12.4351 41.2793 12.5051Z" fill="white"/>
<path d="M66.5149 12.6668C64.9742 13.087 63.5735 14.1142 62.7331 15.4915L62.0327 16.6121V23.5922V30.5724L64.9508 30.5957H67.869L67.939 21.4678C67.9623 16.4487 67.9156 12.3399 67.8223 12.3633C67.7055 12.3633 67.1219 12.5034 66.5149 12.6668Z" fill="white"/>
<path d="M71.0208 21.4445V30.549H71.6044C71.9312 30.5724 73.2152 30.5724 74.4758 30.5724L76.7403 30.5957L76.8103 21.4678L76.857 12.3399H73.9389H71.0208V21.4445Z" fill="white"/>
<path d="M82.5998 12.5981C80.0085 13.2051 77.7908 15.8897 77.7908 18.3876V19.1113H81.1758H84.5842L84.5141 15.773C84.4441 12.0378 84.4908 12.1545 82.5998 12.5981Z" fill="white"/>
<path d="M37.1704 28.1921C36.1899 28.4956 35.2094 29.0792 34.5091 29.7796C33.6453 30.62 32.7349 32.5576 32.7349 33.5148V34.2852H35.8864H39.038V31.1336V27.982L38.4077 28.0054C38.0342 28.0054 37.4972 28.0987 37.1704 28.1921Z" fill="#D92026"/>
</svg>
