<svg width="16" height="16" viewBox="0 0 16 16" fill="none" xmlns="http://www.w3.org/2000/svg">
<path d="M16.0001 8.18411C16.0001 7.64031 15.9551 7.09357 15.8591 6.55859H8.16113V9.63914H12.5694C12.3865 10.6327 11.7987 11.5116 10.938 12.0701V14.0689H13.568C15.1124 12.6756 16.0001 10.618 16.0001 8.18411Z" fill="#4285F4"/>
<path d="M8.16081 16C10.362 16 12.2182 15.2916 13.5707 14.0688L10.9407 12.07C10.209 12.5579 9.26438 12.8342 8.16381 12.8342C6.03465 12.8342 4.22936 11.4262 3.58161 9.5332H0.867676V11.5938C2.25313 14.2951 5.07503 16 8.16081 16Z" fill="#34A853"/>
<path d="M3.57905 9.53363C3.23718 8.54009 3.23718 7.46425 3.57905 6.47072V4.41016H0.868147C-0.289382 6.6706 -0.289382 9.33375 0.868147 11.5942L3.57905 9.53363Z" fill="#FBBC04"/>
<path d="M8.16081 3.16633C9.32436 3.1487 10.4489 3.57786 11.2916 4.36563L13.6217 2.08167C12.1463 0.723645 10.188 -0.0229765 8.16081 0.000539092C5.07503 0.000539092 2.25313 1.70542 0.867676 4.40972L3.57861 6.47028C4.22336 4.57433 6.03165 3.16633 8.16081 3.16633Z" fill="#EA4335"/>
</svg>
