<svg width="62" height="83" viewBox="0 0 62 83" fill="none" xmlns="http://www.w3.org/2000/svg">
<path fill-rule="evenodd" clip-rule="evenodd" d="M22.602 21.652H19.8467C17.4543 21.652 15.1592 22.6029 13.4664 24.2932C11.776 25.986 10.8252 28.2811 10.8252 30.6735C10.8252 31.6697 11.6335 32.478 12.6291 32.478C13.6253 32.478 14.4337 31.6697 14.4337 30.6735C14.4337 29.2374 15.004 27.8605 16.0195 26.8463C17.0338 25.8308 18.4107 25.2605 19.8467 25.2605H41.4986C42.9347 25.2605 44.3116 25.8308 45.3258 26.8463C46.3413 27.8606 46.9116 29.2375 46.9116 30.6735C46.9116 31.6697 47.72 32.478 48.7162 32.478C49.7118 32.478 50.5201 31.6697 50.5201 30.6735C50.5201 28.2811 49.5692 25.986 47.8789 24.2932C46.1861 22.6028 43.891 21.652 41.4986 21.652H38.7433C40.5133 19.6741 41.4986 17.1065 41.4986 14.438V10.826C41.4986 4.84633 36.6523 0 30.6727 0C24.693 0 19.8467 4.84633 19.8467 10.826V14.438C19.8467 17.1065 20.832 19.6739 22.602 21.652ZM30.6689 21.652H30.6762C32.5888 21.652 34.4235 20.892 35.7768 19.5388C37.13 18.1855 37.89 16.3508 37.89 14.4382V10.8262C37.89 6.84017 34.6585 3.60861 30.6725 3.60861C26.6865 3.60861 23.4549 6.84017 23.4549 10.8262V14.4382C23.4549 16.3508 24.2149 18.1855 25.5682 19.5388C26.9214 20.892 28.7561 21.652 30.6688 21.652H30.6689Z" fill="#51ACA0"/>
<path fill-rule="evenodd" clip-rule="evenodd" d="M30.6723 50.5195C27.6843 50.5195 25.2593 52.9446 25.2593 55.9325C25.2593 58.9205 27.6843 61.3455 30.6723 61.3455C33.6603 61.3455 36.0853 58.9205 36.0853 55.9325C36.0853 52.9446 33.6603 50.5195 30.6723 50.5195ZM30.6723 54.1286C31.6685 54.1286 32.4768 54.9369 32.4768 55.9325C32.4768 56.9287 31.6685 57.7371 30.6723 57.7371C29.6761 57.7371 28.8677 56.9287 28.8677 55.9325C28.8677 54.9369 29.6761 54.1286 30.6723 54.1286Z" fill="#51ACA0"/>
<path fill-rule="evenodd" clip-rule="evenodd" d="M4.50889 36.0859H16.2375C17.2331 36.0859 18.0414 36.8943 18.0414 37.8905C18.0414 38.8861 17.2331 39.6944 16.2375 39.6944H4.50889C4.26905 39.6944 4.04009 39.7905 3.87032 39.9578C3.70238 40.1276 3.60693 40.3565 3.60693 40.597V71.2701C3.60693 71.5099 3.70238 71.7395 3.87032 71.9087C4.04009 72.0766 4.26905 72.1721 4.50889 72.1721H56.8356C57.0754 72.1721 57.3044 72.0766 57.4741 71.9087C57.6421 71.7395 57.7375 71.5099 57.7375 71.2701V40.597C57.7375 40.3565 57.6421 40.1275 57.4741 39.9578C57.3044 39.7905 57.0754 39.6944 56.8356 39.6944H23.4544C22.4588 39.6944 21.6505 38.8861 21.6505 37.8905C21.6505 36.8943 22.4588 36.0859 23.4544 36.0859H56.8356C58.0317 36.0859 59.1789 36.5602 60.0254 37.4066C60.8718 38.253 61.346 39.4009 61.346 40.597V71.2701C61.346 72.4663 60.8718 73.6141 60.0254 74.4599C59.179 75.3063 58.0317 75.7812 56.8356 75.7812H40.81L42.6145 79.3896H48.7168C49.7124 79.3896 50.5208 80.198 50.5208 81.1942C50.5208 82.1898 49.7124 82.9981 48.7168 82.9981H12.6292C11.6336 82.9981 10.8252 82.1898 10.8252 81.1942C10.8252 80.198 11.6336 79.3896 12.6292 79.3896H18.7315L20.536 75.7812H4.51043C3.31425 75.7812 2.16707 75.3063 1.32063 74.4599C0.474239 73.6142 0 72.4663 0 71.2701V40.597C0 39.4008 0.474239 38.253 1.32063 37.4066C2.16702 36.5602 3.31432 36.0859 4.51043 36.0859H4.50889ZM36.7735 75.7818L38.578 79.3902H22.7643L24.5688 75.7818H36.7735Z" fill="#51ACA0"/>
</svg>
