<svg width="269" height="269" viewBox="0 0 269 269" fill="none" xmlns="http://www.w3.org/2000/svg">
<g clip-path="url(#clip0_1103_385)">
<path d="M215.36 107.014H53.5869V212.749H215.36V107.014Z" fill="#00AF9E"/>
<path d="M134.5 45.4375L53.5869 107.015L134.5 168.538L215.413 107.015L134.5 45.4375Z" fill="#84DBFF"/>
<path d="M215.413 106.961L195.118 122.409L134.5 168.538L73.8818 122.409L53.5869 106.961L73.8818 91.567L115.324 60.0327L134.5 45.4375L153.676 60.0327L195.118 91.567L215.413 106.961Z" fill="#858282"/>
<path d="M177.54 60.0332H73.8818V122.409L134.5 168.539L195.118 122.409V77.6114H177.54V60.0332Z" fill="#E0DADA"/>
<path d="M177.54 60.0332V77.6114H195.118L177.54 60.0332Z" fill="#CED5E0"/>
<path d="M119.905 148.723L53.5869 212.697H215.413L149.095 148.723H119.905Z" fill="#518A83"/>
<path d="M178.133 89H92V93.6625H178.133V89Z" fill="#858282"/>
<path d="M178.133 99.1758H92V103.838H178.133V99.1758Z" fill="#858282"/>
<path d="M144.415 109.352H92V114.014H144.415V109.352Z" fill="#858282"/>
</g>
<defs>
<clipPath id="clip0_1103_385">
<rect width="269" height="269" fill="white"/>
</clipPath>
</defs>
</svg>
