<svg width="67" height="84" viewBox="0 0 67 84" fill="none" xmlns="http://www.w3.org/2000/svg">
<path d="M9.92495 71.613H1.259C0.564037 71.613 0 71.049 0 70.354L0.0006205 51.7275C0.487712 47.6105 1.65359 44.4303 3.47542 42.124C7.71905 36.753 18.7131 35.7167 27.7252 37.0607C28.4127 37.1637 28.8867 37.8047 28.7831 38.4934C28.6801 39.1816 28.0447 39.6389 27.3516 39.552C19.3273 38.3439 9.05075 39.1288 5.44966 43.684C3.94185 45.5933 2.92366 48.4277 2.50843 51.8777L2.5165 69.0936H9.92406C10.619 69.0936 11.1831 69.6577 11.1831 70.3526C11.1831 71.0482 10.619 71.6122 9.92406 71.6122L9.92495 71.613Z" fill="#858282"/>
<path d="M33.4951 40.2939C27.6724 40.2939 21.8315 37.8597 17.964 33.4511C12.3634 27.0655 11.4122 17.1088 15.7011 9.77793C20.1743 2.13146 28.8159 -1.48106 37.7254 0.564746C46.6352 2.61357 52.8339 9.64514 53.5171 18.478C54.173 26.9454 48.9669 35.4843 41.1387 38.782C38.7163 39.8027 36.1064 40.2929 33.4948 40.2929L33.4951 40.2939ZM16.7875 10.413L17.8739 11.049C14.1156 17.4725 14.9489 26.1955 19.8564 31.7914C24.7645 37.3852 33.3032 39.351 40.1619 36.4612C47.0203 33.5734 51.581 26.0908 51.0076 18.6702C50.4107 10.9586 44.9756 4.81503 37.1611 3.0175C29.3541 1.21807 21.7795 4.37454 17.8738 11.0487L16.7875 10.413Z" fill="#858282"/>
<path d="M65.4551 71.6112H56.7891C56.0942 71.6112 55.5301 71.0472 55.5301 70.3522C55.5301 69.6573 56.0942 69.0933 56.7891 69.0933H64.196V51.7264C63.7896 48.4271 62.772 45.5928 61.2635 43.6834C57.6641 39.1283 47.3829 38.3435 39.3616 39.5515C38.6716 39.6384 38.0331 39.1811 37.9301 38.4929C37.8271 37.8048 38.3005 37.1638 38.9881 37.0602C48.002 35.7131 58.995 36.7518 63.2378 42.1235C65.0596 44.4299 66.2256 47.6093 66.7032 51.5762L66.7125 70.3536C66.7125 71.048 66.1491 71.612 65.4542 71.612L65.4551 71.6112Z" fill="#858282"/>
<path d="M33.7729 83.092H11.1482C10.4532 83.092 9.88916 82.528 9.88916 81.833L9.88978 49.6123C9.88978 48.9744 10.3657 48.4389 10.998 48.3632C19.1234 47.3766 27.6818 49.5105 34.4869 54.1947C34.8275 54.4305 35.0317 54.8177 35.0317 55.2321V81.8328C35.0317 82.5284 34.4676 83.0924 33.7727 83.0924L33.7729 83.092ZM12.4078 80.5739H32.5132V55.9033C26.6134 52.0239 19.3822 50.1766 12.4078 50.7501V80.5739Z" fill="#858282"/>
<path d="M56.3974 83.0914H33.7727C33.0777 83.0914 32.5137 82.5274 32.5137 81.8324V55.2317C32.5137 54.8172 32.7178 54.43 33.0585 54.1942C39.8622 49.5101 48.4234 47.3774 56.5473 48.3628C57.179 48.4385 57.6555 48.974 57.6555 49.6118V81.8326C57.6562 82.5269 57.0921 83.091 56.3972 83.091L56.3974 83.0914ZM35.0323 80.5733H55.1393L55.1387 50.7496C48.1618 50.1757 40.9329 52.0216 35.0317 55.9028L35.0323 80.5733Z" fill="#858282"/>
</svg>
