<svg width="18" height="18" viewBox="0 0 18 18" fill="none" xmlns="http://www.w3.org/2000/svg"><path d="M9 16.5606C8.775 16.5606 8.55 16.5081 8.3625 16.4031C6.96 15.6381 4.4925 14.8281 2.9475 14.6256L2.73 14.5956C1.7475 14.4756 0.9375 13.5531 0.9375 12.5556V3.49562C0.9375 2.90312 1.17 2.36312 1.5975 1.97312C2.025 1.58312 2.58 1.39562 3.165 1.44812C4.815 1.57562 7.305 2.40062 8.715 3.28562L8.895 3.39062C8.9475 3.42062 9.06 3.42062 9.105 3.39812L9.225 3.32312C10.635 2.43812 13.125 1.59812 14.7825 1.45562C14.7975 1.45562 14.8575 1.45562 14.8725 1.45562C15.42 1.40312 15.9825 1.59812 16.4025 1.98812C16.83 2.37812 17.0625 2.91812 17.0625 3.51062V12.5631C17.0625 13.5681 16.2525 14.4831 15.2625 14.6031L15.015 14.6331C13.47 14.8356 10.995 15.6531 9.6225 16.4106C9.4425 16.5156 9.225 16.5606 9 16.5606ZM2.985 2.56562C2.745 2.56562 2.5275 2.64812 2.355 2.80562C2.1675 2.97812 2.0625 3.22562 2.0625 3.49562V12.5556C2.0625 12.9981 2.445 13.4256 2.8725 13.4856L3.0975 13.5156C4.785 13.7406 7.3725 14.5881 8.8725 15.4056C8.94 15.4356 9.0375 15.4431 9.075 15.4281C10.575 14.5956 13.1775 13.7406 14.8725 13.5156L15.1275 13.4856C15.555 13.4331 15.9375 12.9981 15.9375 12.5556V3.50312C15.9375 3.22562 15.8325 2.98562 15.645 2.80562C15.45 2.63312 15.2025 2.55062 14.925 2.56562C14.91 2.56562 14.85 2.56562 14.835 2.56562C13.4025 2.69312 11.0925 3.46562 9.8325 4.25312L9.7125 4.33562C9.3 4.59062 8.715 4.59062 8.3175 4.34312L8.1375 4.23812C6.855 3.45062 4.545 2.68562 3.075 2.56562C3.045 2.56562 3.015 2.56562 2.985 2.56562Z" fill="#858282"/><path d="M9 15.9297C8.6925 15.9297 8.4375 15.6747 8.4375 15.3672V4.11719C8.4375 3.80969 8.6925 3.55469 9 3.55469C9.3075 3.55469 9.5625 3.80969 9.5625 4.11719V15.3672C9.5625 15.6822 9.3075 15.9297 9 15.9297Z" fill="#858282"/><path d="M5.8125 6.92969H4.125C3.8175 6.92969 3.5625 6.67469 3.5625 6.36719C3.5625 6.05969 3.8175 5.80469 4.125 5.80469H5.8125C6.12 5.80469 6.375 6.05969 6.375 6.36719C6.375 6.67469 6.12 6.92969 5.8125 6.92969Z" fill="#858282"/><path d="M6.375 9.17969H4.125C3.8175 9.17969 3.5625 8.92469 3.5625 8.61719C3.5625 8.30969 3.8175 8.05469 4.125 8.05469H6.375C6.6825 8.05469 6.9375 8.30969 6.9375 8.61719C6.9375 8.92469 6.6825 9.17969 6.375 9.17969Z" fill="#858282"/></svg>
