<svg width="18" height="18" viewBox="0 0 18 18" fill="none" xmlns="http://www.w3.org/2000/svg">
<path d="M11.4299 16.7019H11.3324C8.00239 16.7019 6.39739 15.3894 6.11989 12.4494C6.08989 12.1419 6.31489 11.8644 6.62989 11.8344C6.92989 11.8044 7.21489 12.0369 7.24489 12.3444C7.46239 14.6994 8.57239 15.5769 11.3399 15.5769H11.4374C14.4899 15.5769 15.5699 14.4969 15.5699 11.4444V6.55438C15.5699 3.50187 14.4899 2.42188 11.4374 2.42188H11.3399C8.55739 2.42188 7.44739 3.31437 7.24489 5.71438C7.20739 6.02188 6.94489 6.25438 6.62989 6.22438C6.31489 6.20188 6.08989 5.92438 6.11239 5.61688C6.36739 2.63187 7.97989 1.29688 11.3324 1.29688H11.4299C15.1124 1.29688 16.6874 2.87188 16.6874 6.55438V11.4444C16.6874 15.1269 15.1124 16.7019 11.4299 16.7019Z" fill="#EC5D57"/>
<path d="M11.2501 9.5625H2.71509C2.40759 9.5625 2.15259 9.3075 2.15259 9C2.15259 8.6925 2.40759 8.4375 2.71509 8.4375H11.2501C11.5576 8.4375 11.8126 8.6925 11.8126 9C11.8126 9.3075 11.5576 9.5625 11.2501 9.5625Z" fill="#EC5D57"/>
<path d="M4.38758 12.0759C4.24508 12.0759 4.10258 12.0234 3.99008 11.9109L1.47758 9.39836C1.26008 9.18086 1.26008 8.82086 1.47758 8.60336L3.99008 6.09086C4.20758 5.87336 4.56758 5.87336 4.78508 6.09086C5.00258 6.30836 5.00258 6.66836 4.78508 6.88586L2.67008 9.00086L4.78508 11.1159C5.00258 11.3334 5.00258 11.6934 4.78508 11.9109C4.68008 12.0234 4.53008 12.0759 4.38758 12.0759Z" fill="#EC5D57"/>
</svg>
