<svg width="18" height="18" viewBox="0 0 18 18" fill="none" xmlns="http://www.w3.org/2000/svg">
<path d="M14.8275 8.4375H11.7975C10.29 8.4375 9.5625 7.77 9.5625 6.39V2.985C9.5625 1.605 10.2975 0.9375 11.7975 0.9375H14.8275C16.335 0.9375 17.0625 1.605 17.0625 2.985V6.3825C17.0625 7.77 16.3275 8.4375 14.8275 8.4375ZM11.7975 2.0625C10.7925 2.0625 10.6875 2.3475 10.6875 2.985V6.3825C10.6875 7.0275 10.7925 7.305 11.7975 7.305H14.8275C15.8325 7.305 15.9375 7.02 15.9375 6.3825V2.985C15.9375 2.34 15.8325 2.0625 14.8275 2.0625H11.7975Z" fill="white"/>
<path d="M14.8275 17.0625H11.7975C10.29 17.0625 9.5625 16.3275 9.5625 14.8275V11.7975C9.5625 10.29 10.2975 9.5625 11.7975 9.5625H14.8275C16.335 9.5625 17.0625 10.2975 17.0625 11.7975V14.8275C17.0625 16.3275 16.3275 17.0625 14.8275 17.0625ZM11.7975 10.6875C10.9125 10.6875 10.6875 10.9125 10.6875 11.7975V14.8275C10.6875 15.7125 10.9125 15.9375 11.7975 15.9375H14.8275C15.7125 15.9375 15.9375 15.7125 15.9375 14.8275V11.7975C15.9375 10.9125 15.7125 10.6875 14.8275 10.6875H11.7975Z" fill="white"/>
<path d="M6.2025 8.4375H3.1725C1.665 8.4375 0.9375 7.77 0.9375 6.39V2.985C0.9375 1.605 1.6725 0.9375 3.1725 0.9375H6.2025C7.71 0.9375 8.4375 1.605 8.4375 2.985V6.3825C8.4375 7.77 7.7025 8.4375 6.2025 8.4375ZM3.1725 2.0625C2.1675 2.0625 2.0625 2.3475 2.0625 2.985V6.3825C2.0625 7.0275 2.1675 7.305 3.1725 7.305H6.2025C7.2075 7.305 7.3125 7.02 7.3125 6.3825V2.985C7.3125 2.34 7.2075 2.0625 6.2025 2.0625H3.1725Z" fill="white"/>
<path d="M6.2025 17.0625H3.1725C1.665 17.0625 0.9375 16.3275 0.9375 14.8275V11.7975C0.9375 10.29 1.6725 9.5625 3.1725 9.5625H6.2025C7.71 9.5625 8.4375 10.2975 8.4375 11.7975V14.8275C8.4375 16.3275 7.7025 17.0625 6.2025 17.0625ZM3.1725 10.6875C2.2875 10.6875 2.0625 10.9125 2.0625 11.7975V14.8275C2.0625 15.7125 2.2875 15.9375 3.1725 15.9375H6.2025C7.0875 15.9375 7.3125 15.7125 7.3125 14.8275V11.7975C7.3125 10.9125 7.0875 10.6875 6.2025 10.6875H3.1725Z" fill="white"/>
</svg>
