<svg width="18" height="18" viewBox="0 0 18 18" fill="none" xmlns="http://www.w3.org/2000/svg"><path d="M16.5 6.9375H1.5C1.1925 6.9375 0.9375 6.6825 0.9375 6.375C0.9375 6.0675 1.1925 5.8125 1.5 5.8125H16.5C16.8075 5.8125 17.0625 6.0675 17.0625 6.375C17.0625 6.6825 16.8075 6.9375 16.5 6.9375Z" fill="#858282"/><path d="M6 12.9375H4.5C4.1925 12.9375 3.9375 12.6825 3.9375 12.375C3.9375 12.0675 4.1925 11.8125 4.5 11.8125H6C6.3075 11.8125 6.5625 12.0675 6.5625 12.375C6.5625 12.6825 6.3075 12.9375 6 12.9375Z" fill="#858282"/><path d="M10.875 12.9375H7.875C7.5675 12.9375 7.3125 12.6825 7.3125 12.375C7.3125 12.0675 7.5675 11.8125 7.875 11.8125H10.875C11.1825 11.8125 11.4375 12.0675 11.4375 12.375C11.4375 12.6825 11.1825 12.9375 10.875 12.9375Z" fill="#858282"/><path d="M13.17 15.9375H4.83C1.845 15.9375 0.9375 15.0375 0.9375 12.0825V5.9175C0.9375 2.9625 1.845 2.0625 4.83 2.0625H13.1625C16.1475 2.0625 17.055 2.9625 17.055 5.9175V12.075C17.0625 15.0375 16.155 15.9375 13.17 15.9375ZM4.83 3.1875C2.475 3.1875 2.0625 3.5925 2.0625 5.9175V12.075C2.0625 14.4 2.475 14.805 4.83 14.805H13.1625C15.5175 14.805 15.93 14.4 15.93 12.075V5.9175C15.93 3.5925 15.5175 3.1875 13.1625 3.1875H4.83Z" fill="#858282"/></svg>
