<svg width="66" height="66" viewBox="0 0 66 66" fill="none" xmlns="http://www.w3.org/2000/svg">
<path d="M61.8682 39.1375C62.8382 28.6964 58.3788 19.2387 50.9824 13.23C48.0993 10.8858 43.7881 12.8932 43.7881 16.5981C43.7881 17.9588 44.4348 19.2117 45.4857 20.0605C50.7265 24.3313 53.879 31.0675 53.1111 38.5043C52.1141 48.191 44.354 56.032 34.6808 57.1098C22.0571 58.5244 11.333 48.6356 11.333 36.2948C11.333 29.7472 14.3643 23.8867 19.0931 20.047C20.144 19.1983 20.7772 17.9453 20.7772 16.5981C20.7772 12.9336 16.5333 10.8588 13.6772 13.1491C6.914 18.6055 2.57587 26.9449 2.57587 36.2948C2.57587 53.3914 17.0992 67.1737 34.4652 65.9208C48.8268 64.9103 60.5344 53.4722 61.8682 39.1375ZM32.2961 0C34.7212 0 36.6747 1.96698 36.6747 4.37855V24.5468C36.6747 26.9719 34.7077 28.9254 32.2961 28.9254C29.8846 28.9254 27.9176 26.9584 27.9176 24.5468V4.37855C27.9176 1.96698 29.8711 0 32.2961 0Z" fill="#EC5D57"/>
</svg>
